<?xml version="1.0" encoding="utf-8"?>
<!-- Svg Vector Icons : http://www.onlinewebfonts.com/icon -->
<!DOCTYPE svg PUBLIC "-//W3C//DTD SVG 1.1//EN" "http://www.w3.org/Graphics/SVG/1.1/DTD/svg11.dtd">
<svg version="1.1" xmlns="http://www.w3.org/2000/svg" xmlns:xlink="http://www.w3.org/1999/xlink" x="0px" y="0px" viewBox="0 0 1000 1000" enable-background="new 0 0 1000 1000" xml:space="preserve" fill="white">
<g><path d="M191.9,753.4c1.2,0,2.3-0.1,3.4-0.3c0.2,0.2,0.3,0.3,0.3,0.3c0.5-0.3,1-0.5,1.5-0.7c2.3-0.7,4.4-1.8,6.2-3.2c38.5-18.7,68.2-16.5,103.7,3.9c36.3,20.8,75.9,22.3,111.4,0c37.1-23.3,81.7-22.5,118.8,0c35.7,21.6,80.7,21.6,118.8,0c34.3-20.1,77.4-22.5,119.5-3.2c1.5,1,3.2,1.8,5,2.4c0.6,0.3,1.1,0.5,1.7,0.8c0.2,0.2,0.3,0,0.5-0.3c1,0.2,2.1,0.3,3.2,0.3c10.3,0,18.6-15.8,18.6-26.1c0-9-6.4-16.6-14.9-18.3c0-0.2,0.1-0.4,0.1-0.4c-37.1-21.9-97.3-20.6-133.6,0c-38.2,21.6-82,20.9-118.8,0c-38.6-21.9-82.4-21.4-118.8,0c-37.7,22.1-75.2,20.8-111.4,0c-37.8-21.7-82.1-22-118.8,0c-0.3,0.2-0.5,0.4-0.8,0.6c-8.1,2-14.1,9.3-14.1,18.1C173.3,737.6,181.6,753.4,191.9,753.4z"/><path d="M930.6,75H69.4C36.6,75,10,101.8,10,134.7v730.6c0,32.9,26.6,59.6,59.4,59.6h861.2c32.8,0,59.4-26.7,59.4-59.6V134.7C990,101.8,963.4,75,930.6,75z M544.6,157.1h126.2v126.7H544.6V157.1z M329.2,157.1h126.2v126.7H329.2V157.1z M106.5,157.1h126.2v126.7H106.5V157.1z M893.5,828h-787V350.9h787V828z M893.5,283.8H767.3V157.1h126.2V283.8z"/><path d="M236.8,581l7.4,12.9c4.1,7.1,13,9.6,20,5.5l62.6-36.4l62.5,36.4c7,4.1,15.9,1.6,20-5.5l7.4-12.9c4.1-7.1,1.7-16.2-5.2-20.2l-40.4-23.5l40.5-23.5c7-4.1,9.3-13.1,5.3-20.2l-7.4-12.9c-4.1-7.1-13-9.6-20-5.5l-62.6,36.4l-62.5-36.4c-7-4-15.9-1.6-20,5.5l-7.4,12.9c-4.1,7.1-1.7,16.1,5.2,20.2l40.4,23.5L242,560.8C235,564.9,232.7,573.9,236.8,581z"/><path d="M561.1,581l7.4,12.9c4.1,7.1,13,9.6,20,5.5L651,563l62.5,36.4c7,4.1,15.9,1.6,20-5.5l7.4-12.9c4.1-7.1,1.7-16.2-5.2-20.2l-40.4-23.5l40.5-23.5c7-4.1,9.3-13.1,5.3-20.2l-7.4-12.9c-4.1-7.1-13-9.6-20-5.5l-62.6,36.4l-62.5-36.4c-7-4-15.9-1.6-20,5.5l-7.4,12.9c-4.1,7.1-1.7,16.2,5.2,20.2l40.4,23.5l-40.5,23.6C559.4,564.9,557.1,573.9,561.1,581z"/></g>
</svg>