<svg width="21" height="20" viewBox="0 0 21 20" fill="none" xmlns="http://www.w3.org/2000/svg">
<g clip-path="url(#clip0_4081_220604)">
<path d="M3.83337 5.8335H17.1667" stroke="#F92626" stroke-width="1.25" stroke-linecap="round" stroke-linejoin="round"/>
<path d="M8.83337 9.1665V14.1665" stroke="#F92626" stroke-width="1.25" stroke-linecap="round" stroke-linejoin="round"/>
<path d="M12.1666 9.1665V14.1665" stroke="#F92626" stroke-width="1.25" stroke-linecap="round" stroke-linejoin="round"/>
<path d="M4.66663 5.8335L5.49996 15.8335C5.49996 16.2755 5.67555 16.6994 5.98811 17.012C6.30068 17.3246 6.7246 17.5002 7.16663 17.5002H13.8333C14.2753 17.5002 14.6992 17.3246 15.0118 17.012C15.3244 16.6994 15.5 16.2755 15.5 15.8335L16.3333 5.8335" stroke="#F92626" stroke-width="1.25" stroke-linecap="round" stroke-linejoin="round"/>
<path d="M8 5.83333V3.33333C8 3.11232 8.0878 2.90036 8.24408 2.74408C8.40036 2.5878 8.61232 2.5 8.83333 2.5H12.1667C12.3877 2.5 12.5996 2.5878 12.7559 2.74408C12.9122 2.90036 13 3.11232 13 3.33333V5.83333" stroke="#F92626" stroke-width="1.25" stroke-linecap="round" stroke-linejoin="round"/>
</g>
<defs>
<clipPath id="clip0_4081_220604">
<rect width="20" height="20" fill="white" transform="translate(0.5)"/>
</clipPath>
</defs>
</svg>
